<svg width="423" height="125" viewBox="0 0 423 125" fill="none" xmlns="http://www.w3.org/2000/svg">
<path d="M0.800049 1.32031V40.1503H15.31V25.6303L27.2801 37.5003C28.9801 39.2003 31.27 40.1503 33.67 40.1503H63.67V25.6403H39.85C37.43 25.6403 35.1101 24.6803 33.4001 22.9703L26.18 15.8303H63.66V1.32031H0.800049Z" fill="white"/>
<path d="M112.04 44.9902H92.6899V83.8202H112.04V44.9902Z" fill="white"/>
<path d="M295.82 40.1503H315.17V15.8303H353.86V1.32031H295.82V40.1503Z" fill="white"/>
<path d="M116.88 83.8202H136.22V59.5002H165.2V83.8202H184.5V44.9902H116.88V83.8202Z" fill="white"/>
<path d="M271.64 16.3403C271.64 19.8603 271.08 22.3103 270 23.6303C269.23 24.5603 266.57 25.6303 262.74 25.6403H246.7C242.82 25.6303 240.23 24.5203 239.5 23.5903C238.35 22.2903 237.79 19.9203 237.79 16.3403V1.32031H218.45V13.8903C218.45 21.7903 220.7 28.2803 224.96 32.6503C229.81 37.6203 237.13 40.1403 246.71 40.1503H262.75C272.33 40.1503 279.65 37.6303 284.48 32.6703C288.81 28.3403 291.01 22.0203 291.01 13.8903V1.32031H271.66V16.3403H271.64Z" fill="white"/>
<path d="M121.7 16.3403C121.7 19.8603 121.14 22.3103 120.06 23.6303C119.29 24.5603 116.63 25.6303 112.8 25.6403H96.76C92.88 25.6303 90.29 24.5203 89.56 23.5903C88.41 22.2903 87.85 19.9203 87.85 16.3403V1.32031H68.51V13.8903C68.51 21.7903 70.76 28.2803 75.02 32.6503C79.87 37.6203 87.19 40.1403 96.77 40.1503H112.81C122.39 40.1503 129.71 37.6303 134.54 32.6703C138.87 28.3403 141.07 22.0203 141.07 13.8903V1.32031H121.72V16.3403H121.7Z" fill="white"/>
<path d="M44.3301 66.2702L27.74 44.9902H0.800049V45.1302V83.8202H20.1V59.5002L39.05 83.8202H49.6101L68.56 59.5002V83.8202H87.86V45.1302V44.9902H60.92L44.3301 66.2702Z" fill="white"/>
<path d="M145.89 1.32031V15.8303H170.07V40.1503H189.42V15.8303H213.6V1.32031H145.89Z" fill="white"/>
<path d="M406.56 25.6403H373.21V15.8303H421.57V1.32031H358.7V40.1503H400.38C402.8 40.1503 405.12 41.1103 406.83 42.8203L411.23 47.1703L421.57 36.8303L412.95 28.2803C411.25 26.5803 408.96 25.6303 406.56 25.6303" fill="white"/>
<path d="M233.93 44.9902H189.34V83.8202H233.93C247.46 83.8202 257.72 76.3902 257.72 64.4102C257.72 52.4302 247.46 45.0002 233.93 45.0002M228.5 73.1702H208.69V55.6402H228.5C234.25 55.6402 238.45 59.4102 238.45 64.4002C238.45 69.3902 234.25 73.0502 228.5 73.1602" fill="white"/>
<path d="M7.75005 104.34H12.08L19.0301 123.14H14.47L13.49 120.33H6.30005L5.32005 123.14H0.800049L7.75005 104.34ZM7.70005 116.42H12.13L9.91005 110.11L7.70005 116.42Z" fill="white"/>
<path d="M30.1501 119.64L34.0101 116.55C35.1201 118.22 36.5901 119.2 38.7001 119.2C40.2201 119.2 41.0401 118.48 41.0401 117.45C41.0401 116.19 39.8001 115.93 37.1501 115.29C34.4201 114.67 31.2201 113.67 31.2201 109.8C31.2201 106.53 34.0801 104.03 38.1001 104.03C41.5501 104.03 43.5901 105.21 45.6001 107.38L41.9901 110.19C41.1101 108.8 39.8801 107.97 38.0001 107.97C36.4801 107.97 35.7601 108.79 35.7601 109.64C35.7601 110.8 37.3101 111.03 39.5701 111.57C42.3801 112.21 45.7001 113.19 45.7001 117.24C45.7001 120.79 42.6901 123.4 38.5401 123.4C34.3901 123.4 31.9201 121.78 30.1401 119.64H30.1501Z" fill="white"/>
<path d="M49.99 113.74C49.99 108.41 54.24 104.08 59.6 104.08C64.96 104.08 69.23 108.41 69.23 113.74C69.23 119.07 65.01 123.4 59.6 123.4C54.19 123.4 49.99 119.1 49.99 113.74ZM64.72 113.74C64.72 110.85 62.51 108.49 59.6 108.49C56.69 108.49 54.53 110.86 54.53 113.74C54.53 116.62 56.67 118.97 59.6 118.97C62.53 118.97 64.72 116.6 64.72 113.74Z" fill="white"/>
<path d="M74.4299 104.34H78.9399V118.84H87.1299V123.14H74.4299V104.34Z" fill="white"/>
<path d="M91.8101 104.34H96.3401V123.14H91.8101V104.34Z" fill="white"/>
<path d="M106.15 108.49H101.05V104.34H115.58V108.49H110.53V123.15H106.15V108.49Z" fill="white"/>
<path d="M124.09 104.34H128.42L135.37 123.14H130.81L129.83 120.33H122.64L121.66 123.14H117.13L124.08 104.34H124.09ZM124.04 116.42H128.47L126.25 110.11L124.04 116.42Z" fill="white"/>
<path d="M147.56 113.74C147.56 108.25 151.66 104.08 157.19 104.08C160.82 104.08 163.89 105.93 165.56 108.72L161.62 111.22C160.77 109.55 159.28 108.49 157.22 108.49C154.23 108.49 152.15 110.83 152.15 113.74C152.15 116.65 154.18 118.94 157.17 118.94C159.41 118.94 160.96 117.65 161.73 115.87L165.88 118.09C164.28 121.21 161.22 123.4 157.2 123.4C151.4 123.4 147.57 119.1 147.57 113.74H147.56Z" fill="white"/>
<path d="M169.72 113.74C169.72 108.41 173.97 104.08 179.33 104.08C184.69 104.08 188.96 108.41 188.96 113.74C188.96 119.07 184.74 123.4 179.33 123.4C173.92 123.4 169.72 119.1 169.72 113.74ZM184.45 113.74C184.45 110.85 182.24 108.49 179.33 108.49C176.42 108.49 174.26 110.86 174.26 113.74C174.26 116.62 176.4 118.97 179.33 118.97C182.26 118.97 184.45 116.6 184.45 113.74Z" fill="white"/>
<path d="M194.16 104.34H198.44L203.51 111.37L208.74 104.34H212.84V123.14H208.46V111.21L203.49 117.88L198.57 111.23V123.13H194.17V104.33L194.16 104.34Z" fill="white"/>
<path d="M218.82 104.34H226.34C230.74 104.34 233.6 107.51 233.6 111.35C233.6 115.19 230.77 118.43 226.31 118.43H223.32V123.14H218.81V104.34H218.82ZM223.32 108.41V114.26H226.1C227.77 114.26 229.04 113.08 229.04 111.35C229.04 109.62 227.78 108.41 226.1 108.41H223.32Z" fill="white"/>
<path d="M242.97 104.34H247.3L254.25 123.14H249.69L248.71 120.33H241.52L240.54 123.14H236.01L242.96 104.34H242.97ZM242.92 116.42H247.35L245.13 110.11L242.92 116.42Z" fill="white"/>
<path d="M258.55 104.34H263.24L270.32 115.62V104.34H274.6V123.14H270.25L262.86 111.32V123.14H258.56V104.34H258.55Z" fill="white"/>
<path d="M285.13 115.26L278.97 104.34H283.84L287.45 111.09L290.98 104.34H295.82L289.64 115.34V123.14H285.13V115.26Z" fill="white"/>
</svg>
